<?xml version="1.0" encoding="utf-8"?>
<!-- Generator: Adobe Illustrator 22.1.0, SVG Export Plug-In . SVG Version: 6.00 Build 0)  -->
<svg version="1.1" id="Layer_1" xmlns="http://www.w3.org/2000/svg" xmlns:xlink="http://www.w3.org/1999/xlink" x="0px" y="0px"
	 width="200px" height="200px" viewBox="0 0 200 200" enable-background="new 0 0 200 200" xml:space="preserve">
<pattern  width="4.663" height="4.663" patternUnits="userSpaceOnUse" id="New_Pattern_Swatch_2" viewBox="0 -4.663 4.663 4.663" overflow="visible">
	<g>
		<rect y="-4.663" fill="none" width="4.663" height="4.663"/>
		<g>
			<path fill="#566875" d="M3.664-2.331c0,0.552,0.447,0.999,0.999,0.999v-1.998C4.111-3.331,3.664-2.883,3.664-2.331z"/>
			<path fill="#566875" d="M0.999-2.331c0-0.552-0.447-0.999-0.999-0.999v1.998C0.552-1.332,0.999-1.78,0.999-2.331z"/>
			<path fill="#566875" d="M2.331-0.999C1.78-0.999,1.332-0.552,1.332,0h1.998C3.331-0.552,2.883-0.999,2.331-0.999z"/>
			<path fill="#566875" d="M2.331-3.664c0.552,0,0.999-0.447,0.999-0.999H1.332C1.332-4.111,1.78-3.664,2.331-3.664z"/>
		</g>
	</g>
</pattern>
<path fill="#566875" d="M40.116,22.525h144.768c2.792,0,5.076,2.284,5.076,5.076v108.52c0,2.792-2.284,5.076-5.076,5.076H40.116
	c-2.792,0-5.076-2.284-5.076-5.076V27.601C35.04,24.809,37.324,22.525,40.116,22.525z"/>
<path fill="#99B4C4" d="M184.884,22.525h-76.465l81.541,81.541V27.601C189.96,24.809,187.676,22.525,184.884,22.525z"/>
<pattern  id="SVGID_1_" xlink:href="#New_Pattern_Swatch_2" patternTransform="matrix(1 0 0 1 218.896 5.3629)">
</pattern>
<path fill="url(#SVGID_1_)" d="M184.884,22.525h-76.465l81.541,81.541V27.601C189.96,24.809,187.676,22.525,184.884,22.525z"/>
<path fill="#FFFFFF" d="M37.03,24.013c-0.92,0.92-1.49,2.19-1.49,3.59v108.52c0,2.27,1.51,4.2,3.58,4.85l0.35,0.09l124.96,27.41
	c2,0.33,4.34,0.07,4.34-2.83v-24.45v-85.69c0-2.32-1.73-4.98-3.85-5.91L40.97,22.853c-1.32-0.23-2.03-0.05-2.71,0.26"/>
<path fill="#F58025" d="M167.92,53.593L43.97,26.853c-1.33-0.338-3.233-0.587-4.124,0.227c-1.372,0.981-1.279,2.814-1.306,4.523
	v64.939c6.601-4.006,14.347-6.313,22.632-6.313c24.125,0,43.681,19.557,43.681,43.681c0,8.591-2.49,16.596-6.773,23.351
	l69.35,15.212c2,0.33,4.34,0.07,4.34-2.83v-24.45v-85.69C171.77,57.183,170.04,54.523,167.92,53.593z"/>
<pattern  id="SVGID_2_" xlink:href="#New_Pattern_Swatch_2" patternTransform="matrix(1 0 0 1 218.896 5.3629)">
</pattern>
<polygon fill="url(#SVGID_2_)" points="156.196,166.432 90.229,101.27 90.229,151.909 "/>
<path fill="none" stroke="#566875" stroke-width="2" stroke-linecap="round" stroke-miterlimit="10" d="M168.773,141.197"/>
<path fill="none" stroke="#566875" stroke-width="2" stroke-linecap="round" stroke-miterlimit="10" d="M153.876,143.603v-79.63
	c0-1.448-1.08-3.119-2.399-3.714L56.244,40.882"/>
<path fill="none" stroke="#566875" stroke-width="2" stroke-linecap="round" stroke-miterlimit="10" d="M37.032,24.016
	c-0.92,0.92-1.491,2.189-1.491,3.585v108.52c0,2.27,1.511,4.205,3.577,4.849l0.349,0.092l124.965,27.412
	c1.995,0.33,4.342,0.069,4.342-2.829V55.503c0-2.317-1.734-4.979-3.852-5.915L40.972,22.855c-1.325-0.236-2.03-0.048-2.711,0.254"/>
<path fill="none" stroke="#566875" stroke-width="2" stroke-linecap="round" stroke-miterlimit="10" d="M37.032,24.016
	c0.92-0.92,2.189-1.491,3.585-1.491h144.768c2.792,0,5.076,2.284,5.076,5.076v108.52c0,2.792-2.284,5.076-5.076,5.076h-16.612"/>
<g>
	<circle fill="#E09B6C" cx="58.172" cy="131.91" r="43.681"/>
	<path fill="#F4BE9A" d="M36.137,94.199l59.746,59.746c1.268-2.166,2.361-4.446,3.246-6.829L42.966,90.953
		C40.583,91.838,38.303,92.931,36.137,94.199z M100.632,121.656L68.426,89.451c-3.29-0.792-6.721-1.222-10.253-1.222
		c-3.71,0-7.311,0.466-10.75,1.337l53.095,53.095c0.871-3.44,1.337-7.04,1.337-10.75
		C101.854,128.377,101.423,124.946,100.632,121.656z"/>
	<circle fill="none" stroke="#566875" stroke-width="2.5" stroke-miterlimit="10" cx="58.172" cy="131.91" r="43.681"/>
	<path fill="none" stroke="#566875" stroke-width="2.5" stroke-linecap="round" stroke-miterlimit="10" d="M86.993,148.55
		c-9.19,15.917-29.543,21.371-45.46,12.181"/>
	<path fill="none" stroke="#566875" stroke-width="2.5" stroke-linecap="round" stroke-miterlimit="10" d="M29.352,115.27
		c9.19-15.917,29.543-21.371,45.46-12.181"/>
	<g>
		<path fill="#566875" d="M39.475,142.037c-0.266,0.361-0.495,0.741-0.779,1.044c-0.158,0.204-0.315,0.407-0.564,0.513
			c-0.136,0.071-0.207,0.249-0.333,0.35c-0.138,0.166-0.283,0.304-0.484,0.363c-0.286,0.086-0.463,0.326-0.704,0.461
			c-0.106,0.062-0.183,0.117-0.298,0.151c-0.258,0.077-0.524,0.125-0.719,0.309c-0.126,0.101-0.347,0.197-0.507,0.183
			c-0.246,0.012-0.495,0.117-0.721,0.092c-0.066-0.013-0.124,0.005-0.152,0.014c-0.327,0.161-0.676,0.14-1.025,0.12
			c-0.357-0.048-0.696-0.136-1.053-0.184c-0.321-0.028-0.639-0.152-0.928-0.284c-0.364-0.173-0.715-0.409-1.01-0.665
			c-0.378-0.323-0.756-0.647-1.142-1c-0.211-0.187-0.375-0.417-0.48-0.668c-0.181-0.288-0.361-0.577-0.581-0.793
			c-0.163-0.231-0.269-0.481-0.3-0.69c-0.066-0.323-0.2-0.563-0.355-0.768c-0.163-0.232-0.231-0.461-0.243-0.706
			c0.038-0.293-0.097-0.532-0.194-0.754c-0.125-0.212-0.157-0.421-0.152-0.61c0.038-0.292-0.031-0.521-0.108-0.779
			c-0.06-0.2-0.112-0.372-0.077-0.568c0.037-0.293-0.012-0.559-0.06-0.825c-0.031-0.208,0.012-0.378-0.011-0.558
			c0.006-0.502,0.013-1.002,0.019-1.504c0.014-0.16,0.065-0.301,0.08-0.461c0.037-0.292,0.075-0.584,0.104-0.904
			c0.006-0.189,0.106-0.375,0.207-0.561c0.031-0.104,0.043-0.17,0.037-0.293c-0.011-0.246,0.015-0.472,0.164-0.704
			c0.109-0.157,0.181-0.335,0.169-0.581c-0.022-0.181,0.098-0.403,0.207-0.562c0.04-0.073,0.117-0.129,0.12-0.223
			c-0.002-0.218,0.201-0.372,0.198-0.59c0.224-0.191,0.149-0.545,0.336-0.756c0.02-0.037,0.031-0.103,0.052-0.14
			c0.251-0.201,0.309-0.53,0.449-0.79c0.072-0.178,0.238-0.353,0.384-0.489c0.048-0.046,0.105-0.063,0.118-0.129
			c0.085-0.338,0.338-0.539,0.523-0.75c0.256-0.295,0.536-0.503,0.745-0.848c0.161-0.297,0.45-0.479,0.748-0.629
			c0.106-0.062,0.183-0.117,0.235-0.257c0.072-0.178,0.255-0.296,0.456-0.355c0.258-0.077,0.507-0.183,0.685-0.423
			c0.109-0.157,0.317-0.189,0.499-0.213c0.237-0.04,0.449-0.165,0.662-0.291c0.298-0.151,0.602-0.18,0.904-0.208
			c0.238-0.04,0.467-0.109,0.667-0.169c0.352-0.074,0.664-0.074,1.022-0.025c0.357,0.049,0.733,0.155,1.131,0.129
			c0.066,0.012,0.132,0.024,0.198,0.035c0.569,0.235,1.13,0.441,1.608,0.892c0.295,0.255,0.562,0.52,0.856,0.773
			c0.203,0.157,0.309,0.407,0.406,0.628c0.134,0.239,0.297,0.472,0.44,0.741c0.097,0.22,0.157,0.421,0.226,0.649
			c0.058,0.295,0.163,0.545,0.277,0.823c0.097,0.22,0.071,0.445,0.074,0.663c-0.008,0.284,0.068,0.541,0.051,0.797
			c-0.009,0.283-0.026,0.537-0.101,0.81c-0.071,0.177-0.041,0.387-0.112,0.563c-0.083,0.244-0.27,0.456-0.316,0.719
			c-0.003,0.095-0.092,0.215-0.178,0.241c-0.317,0.188-0.479,0.485-0.684,0.735c-0.118,0.129-0.298,0.151-0.441,0.194
			c-0.249,0.106-0.453,0.26-0.701,0.366c-0.25,0.105-0.516,0.154-0.742,0.128c-0.32-0.028-0.653,0.008-0.961-0.086
			c0,0,0,0-0.029,0.009c-0.512,0.06-0.898-0.293-1.308-0.515c-0.261-0.14-0.48-0.354-0.645-0.587
			c-0.117-0.184-0.186-0.412-0.168-0.667c0.045-0.264,0.138-0.479,0.229-0.692c0.1-0.187,0.358-0.264,0.559-0.323
			c0.429-0.129,0.724,0.126,0.933,0.407c0.246,0.301,0.564,0.424,0.921,0.473c0.556,0.084,0.971-0.197,1.349-0.497
			c0.134-0.072,0.215-0.221,0.229-0.381c0.034-0.198,0.106-0.375,0.178-0.553c0.043-0.169,0.04-0.386-0.049-0.578
			c-0.125-0.212-0.128-0.43-0.093-0.627c0.057-0.329-0.077-0.57-0.211-0.81c-0.172-0.262-0.249-0.52-0.326-0.777
			c0.003-0.094-0.015-0.152-0.061-0.2c-0.137-0.146-0.208-0.28-0.337-0.399c-0.553-0.489-1.116-0.913-1.88-0.965
			c-0.255-0.018-0.499-0.1-0.773-0.08c-0.341,0.008-0.656,0.103-0.972,0.196c-0.114,0.034-0.209,0.031-0.323,0.065
			c-0.352,0.074-0.679,0.234-0.968,0.415c-0.24,0.135-0.444,0.289-0.693,0.395c-0.164,0.08-0.272,0.237-0.381,0.396
			c-0.117,0.129-0.206,0.248-0.369,0.328c-0.278,0.115-0.382,0.395-0.53,0.627c-0.098,0.092-0.167,0.175-0.292,0.275
			c-0.183,0.116-0.312,0.312-0.375,0.518c-0.031,0.102-0.071,0.178-0.177,0.24c-0.164,0.08-0.124,0.318-0.287,0.397
			c-0.058,0.329-0.338,0.539-0.47,0.827c0.008,0.028-0.021,0.037-0.041,0.075c0.009,0.341-0.206,0.561-0.347,0.821
			c-0.048,0.046-0.068,0.083-0.06,0.111c0.039,0.238-0.163,0.393-0.132,0.602c0.017,0.058-0.003,0.094-0.06,0.111
			c-0.187,0.212-0.195,0.495-0.27,0.768c-0.085,0.337-0.134,0.695-0.25,1.042c-0.114,0.346-0.192,0.713-0.138,1.102
			c0.034,0.114-0.006,0.189-0.066,0.301c-0.1,0.186-0.135,0.384-0.066,0.612c0.04,0.238,0.08,0.477-0.033,0.729
			c-0.07,0.177-0.011,0.377,0.032,0.521c0.105,0.249,0.108,0.466,0.074,0.665c-0.018,0.253,0.022,0.491,0.111,0.684
			c0.105,0.249,0.146,0.486,0.157,0.733c0,0.312,0.097,0.532,0.231,0.772c0.106,0.25,0.183,0.507,0.232,0.774
			c0.094,0.313,0.257,0.546,0.428,0.807c0.164,0.231,0.306,0.502,0.412,0.75c0.197,0.347,0.435,0.619,0.75,0.837
			c0.406,0.314,0.853,0.557,1.311,0.731c0.516,0.157,1.031,0.314,1.598,0.333c0.189,0.006,0.352-0.075,0.524-0.127
			c0.258-0.077,0.532-0.097,0.79-0.174c0.286-0.086,0.519-0.248,0.742-0.44c0.174-0.146,0.384-0.177,0.596-0.303
			c0.097-0.093,0.174-0.146,0.226-0.286c0.072-0.179,0.21-0.344,0.364-0.452c0.221-0.098,0.358-0.264,0.421-0.47
			c0.055-0.234,0.23-0.381,0.358-0.575c0.129-0.194,0.221-0.409,0.35-0.604c0.12-0.223,0.277-0.426,0.333-0.661
			c0.095-0.308,0.413-0.497,0.441-0.818c0.02-0.349,0.161-0.608,0.368-0.858c0.048-0.046,0.088-0.12,0.07-0.177
			c-0.008-0.342,0.125-0.631,0.256-0.92c0.103-0.279,0.272-0.55,0.541-0.692c0.155-0.108,0.373-0.111,0.57-0.077
			c0.396,0.069,0.632,0.342,0.793,0.668c0.017,0.058,0.026,0.086,0.005,0.123c-0.094,0.31-0.037,0.604,0.077,0.882
			c0.034,0.115,0.003,0.218-0.028,0.321c-0.075,0.272-0.018,0.566,0.022,0.804c0.003,0.218,0.025,0.398-0.009,0.596
			c-0.054,0.235,0.023,0.492,0.034,0.738c0.066,0.324,0,0.624,0,0.937c-0.006,0.189,0.025,0.398,0.048,0.579
			c0.021,0.274-0.017,0.566,0.003,0.841c0.011,0.246-0.043,0.48,0.1,0.751c0.125-0.101,0.251-0.201,0.303-0.34
			c0.112-0.253,0.261-0.484,0.455-0.669c0.138-0.164,0.247-0.322,0.31-0.528c0.012-0.065,0.043-0.169,0.091-0.215
			c0.207-0.249,0.347-0.51,0.339-0.851c0.255-0.294,0.37-0.641,0.476-1.017c0.083-0.242,0.232-0.474,0.278-0.737
			c0.006-0.188,0.106-0.375,0.186-0.524c0.112-0.252,0.178-0.552,0.224-0.815c0.012-0.065,0.052-0.142,0.101-0.186
			c0.166-0.175,0.163-0.393,0.16-0.61c-0.003-0.217,0.069-0.395,0.215-0.532c0.118-0.129,0.235-0.258,0.353-0.387
			c0.048-0.045,0.089-0.121,0.174-0.146c0.344-0.103,0.959,0.182,1.091,0.517c0.08,0.163,0.083,0.381,0.097,0.533
			c0.038,0.332-0.02,0.662-0.115,0.97c-0.134,0.384-0.269,0.769-0.293,1.212c-0.014,0.159-0.143,0.354-0.281,0.521
			c-0.049,0.044-0.126,0.099-0.1,0.185c0.06,0.2-0.02,0.349-0.064,0.519c-0.002,0.095-0.042,0.168-0.12,0.223
			c-0.048,0.047-0.089,0.121-0.1,0.187c-0.038,0.292-0.178,0.553-0.318,0.812c-0.101,0.187-0.23,0.381-0.255,0.606
			c-0.003,0.095-0.051,0.142-0.091,0.215c-0.113,0.252-0.348,0.511-0.385,0.803c-0.003,0.094-0.071,0.178-0.12,0.223
			c-0.232,0.164-0.344,0.415-0.456,0.668c-0.043,0.168-0.132,0.287-0.287,0.397c-0.146,0.137-0.209,0.343-0.318,0.501
			c-0.12,0.222-0.295,0.368-0.424,0.562c-0.148,0.232-0.27,0.455-0.464,0.639c-0.232,0.164-0.298,0.463-0.53,0.627
			c-0.281,0.208-0.401,0.432-0.261,0.796c0.051,0.172,0.035,0.427-0.095,0.621c-0.118,0.128-0.021,0.349-0.006,0.501
			c0.04,0.237,0.006,0.436-0.058,0.641c-0.111,0.253-0.034,0.51-0.061,0.735c0.003,0.219-0.068,0.396-0.132,0.602
			c-0.063,0.206-0.052,0.453-0.086,0.65c-0.017,0.255-0.081,0.46-0.106,0.687c-0.035,0.198-0.098,0.404-0.169,0.582
			c-0.071,0.178-0.134,0.384-0.112,0.563c-0.026,0.227-0.089,0.433-0.227,0.599c-0.117,0.128-0.141,0.261-0.146,0.449
			c0.002,0.218-0.023,0.443-0.226,0.599c-0.049,0.045-0.069,0.083-0.11,0.157c-0.074,0.271-0.186,0.523-0.335,0.756
			c-0.129,0.194-0.295,0.37-0.35,0.604c-0.031,0.103-0.175,0.146-0.235,0.257c-0.12,0.223-0.332,0.35-0.452,0.572
			c-0.089,0.12-0.224,0.191-0.387,0.271c-0.229,0.068-0.45,0.166-0.616,0.341c-0.166,0.175-0.403,0.214-0.63,0.188
			c-0.341,0.008-0.682,0.017-1.03-0.003c-0.132-0.023-0.226-0.026-0.338-0.087c-0.363-0.172-0.698-0.353-0.972-0.645
			c-0.212-0.187-0.412-0.438-0.45-0.771c-0.066-0.322-0.139-0.675-0.263-0.98c-0.077-0.258,0.072-0.49,0.033-0.728
			c0.002-0.095,0.043-0.169,0.008-0.284c-0.106-0.248-0.014-0.463,0.106-0.688c0.061-0.11,0.1-0.186,0.095-0.309
			c-0.011-0.246,0.043-0.48,0.201-0.684c0.048-0.046,0.052-0.141,0.091-0.215c0.046-0.264,0.129-0.507,0.287-0.71
			c0.169-0.269,0.215-0.532,0.355-0.794c0.129-0.193,0.304-0.339,0.387-0.583c0.112-0.251,0.261-0.484,0.485-0.676l0.02-0.037
			c0.151-0.326,0.321-0.595,0.602-0.805c0.154-0.108,0.181-0.334,0.318-0.501c0.02-0.036,0.06-0.111,0.118-0.128
			c0.306-0.123,0.447-0.383,0.587-0.645c0.08-0.148,0.203-0.154,0.337-0.226c0.204-0.154,0.361-0.357,0.49-0.552
			c0.148-0.232,0.381-0.396,0.585-0.549c0.175-0.147,0.303-0.341,0.449-0.479c0.117-0.129,0.049-0.358,0.026-0.538
			c-0.015-0.152-0.037-0.332-0.022-0.493c0.049-0.358,0.068-0.708-0.014-1.088c-0.017-0.057-0.005-0.123,0.014-0.16
			c0.069-0.396,0.089-0.745,0.007-1.126c-0.043-0.143,0.054-0.234,0.078-0.365C39.641,141.863,39.544,141.954,39.475,142.037z
			 M38.543,149.868c-0.126,0.1-0.215,0.22-0.295,0.368c-0.103,0.281-0.281,0.521-0.496,0.742c-0.049,0.045-0.097,0.091-0.101,0.186
			c-0.042,0.169-0.151,0.326-0.27,0.455c-0.166,0.176-0.226,0.286-0.317,0.501c-0.052,0.14-0.075,0.272-0.172,0.363
			c-0.137,0.166-0.18,0.336-0.214,0.532c-0.043,0.169-0.115,0.346-0.188,0.524c-0.063,0.206-0.097,0.403-0.123,0.629
			c0.003,0.218,0.071,0.447,0.054,0.702c-0.006,0.189,0.297,0.473,0.486,0.479c0.321,0.029,0.728-0.279,0.794-0.581
			c0.023-0.132,0.063-0.206,0.169-0.27c0.175-0.146,0.312-0.312,0.318-0.5c0.009-0.284,0.157-0.516,0.241-0.759
			c0.106-0.375,0.25-0.73,0.384-1.114c0.095-0.309,0.115-0.658,0.304-0.965c0.06-0.111,0.063-0.205,0.029-0.32
			c-0.031-0.209-0.006-0.435,0.095-0.62c0.109-0.158,0.132-0.289,0.109-0.47c-0.003-0.218-0.043-0.455,0.003-0.72
			C39.099,149.326,38.835,149.593,38.543,149.868z"/>
		<path fill="#566875" d="M56.951,134.34c0.066-0.3,0.112-0.563,0.281-0.833c0.118-0.128,0.132-0.288,0.138-0.478
			c-0.022-0.181,0.012-0.377,0.149-0.544c0.097-0.092,0.129-0.195,0.197-0.277c0.204-0.466,0.347-0.509,0.828-0.466
			c0.197,0.033,0.347,0.114,0.504,0.223c0.344,0.21,0.381,0.541,0.332,0.898c-0.063,0.207-0.003,0.408-0.058,0.644
			c-0.104,0.278-0.132,0.6-0.273,0.86l-0.106,0.375c-0.161,0.298-0.041,0.699-0.267,0.984c-0.203,0.155-0.324,0.378-0.341,0.634
			c-0.009,0.283-0.229,0.38-0.396,0.555c-0.068,0.083-0.166,0.175-0.226,0.285c-0.08,0.149-0.255,0.296-0.373,0.424
			c-0.28,0.209-0.599,0.398-0.942,0.501c-0.201,0.061-0.355,0.169-0.519,0.249c-0.335,0.131-0.656,0.103-0.997,0.111
			c-0.274,0.021-0.352,0.073-0.435,0.317c-0.067,0.301-0.215,0.532-0.393,0.771c-0.1,0.187-0.135,0.385-0.197,0.592
			c-0.032,0.103-0.101,0.186-0.228,0.286c-0.183,0.116-0.341,0.319-0.386,0.583c-0.012,0.065-0.023,0.132-0.08,0.149
			c-0.201,0.06-0.301,0.246-0.502,0.306c-0.163,0.079-0.264,0.266-0.409,0.403c-0.195,0.184-0.396,0.243-0.624,0.312
			c-0.279,0.114-0.557,0.228-0.843,0.313c-0.191,0.088-0.4,0.12-0.618,0.123c-0.341,0.009-0.722,0.091-1.091,0.107
			c-0.312,0-0.65-0.085-0.938-0.217c-0.244-0.084-0.466-0.204-0.682-0.296c-0.234-0.056-0.4-0.192-0.575-0.358
			c-0.323-0.246-0.549-0.584-0.795-0.886c-0.292-0.349-0.478-0.761-0.606-1.19c-0.06-0.201-0.14-0.363-0.229-0.556
			c-0.166-0.45-0.16-0.95-0.325-1.401c-0.103-0.343-0.112-0.684-0.092-1.033c0.015-0.161-0.028-0.304-0.051-0.482
			c-0.058-0.296-0.04-0.551-0.003-0.844l-0.02-0.586c-0.006-0.123-0.011-0.246,0.012-0.379c0.092-0.214,0.126-0.411,0.049-0.669
			c-0.032-0.21-0.043-0.456,0.161-0.61c0.04-0.074,0.052-0.141,0.055-0.235c-0.026-0.397-0.006-0.746,0.203-1.09
			c0.061-0.111,0.075-0.272,0.098-0.403c0.074-0.272,0.195-0.496,0.241-0.759c0.063-0.206,0.126-0.412,0.33-0.567
			c0.175-0.145,0.2-0.371,0.292-0.586c0.032-0.104,0.101-0.186,0.198-0.278c0.167-0.175,0.341-0.32,0.453-0.572
			c0.104-0.279,0.364-0.452,0.634-0.595c0.212-0.125,0.415-0.281,0.589-0.427c0.387-0.271,0.805-0.334,1.206-0.454
			c0.258-0.077,0.478-0.174,0.761-0.166c0.37-0.017,0.747-0.004,1.114,0.072c0.292,0.038,0.604,0.038,0.815,0.225
			c0.369,0.295,0.799,0.479,1.07,0.865c0.154,0.203,0.35,0.332,0.475,0.543c0.246,0.302,0.34,0.617,0.452,0.989
			c0.014,0.151,0.163,0.231,0.235,0.366c0.077,0.258,0.24,0.49,0.231,0.773s0.134,0.553,0.249,0.83
			c0.069,0.23,0.091,0.409,0.094,0.627c0.003,0.218,0.006,0.436,0.132,0.647c0.114,0.278,0.114,0.59,0.056,0.919
			c-0.022,0.132,0.012,0.246,0.055,0.39c0.106,0.25,0.146,0.486,0.034,0.739c-0.052,0.14-0.058,0.329-0.015,0.472
			c0.077,0.258,0.023,0.493-0.003,0.719l-0.023,0.132c0.085-0.025,0.134-0.071,0.172-0.052c0.292,0.038,0.515-0.154,0.644-0.349
			c0.195-0.184,0.398-0.338,0.547-0.569C56.616,135.096,56.826,134.752,56.951,134.34z M49.147,129.532
			c-0.304,0.027-0.49,0.239-0.63,0.5c-0.04,0.074-0.118,0.128-0.166,0.175c-0.175,0.146-0.275,0.332-0.375,0.518
			c-0.061,0.111-0.063,0.206-0.189,0.307c-0.058,0.018-0.262,0.483-0.244,0.541c0.049,0.266-0.138,0.478-0.229,0.692
			c-0.06,0.111-0.092,0.215-0.094,0.31c0.011,0.246-0.006,0.501-0.126,0.724c-0.063,0.206-0.126,0.413-0.124,0.631
			c0.022,0.18,0.017,0.368,0.002,0.529c-0.135,0.696-0.081,1.396-0.064,2.078c-0.015,0.16-0.058,0.329-0.015,0.473
			c0.095,0.314,0.152,0.61,0.189,0.941c0.011,0.247,0.002,0.53,0.185,0.725c0.038,0.021,0.025,0.086,0.034,0.115l0.292,0.661
			c0.123,0.307,0.352,0.55,0.61,0.784c0.452,0.365,0.97,0.428,1.479,0.463c0.292,0.037,0.595,0.008,0.865-0.134
			c0.135-0.072,0.223-0.191,0.367-0.234c0.257-0.078,0.435-0.318,0.63-0.501c0.418-0.375,0.642-0.88,0.948-1.314
			c0.04-0.074,0.052-0.14,0.062-0.206c0.052-0.141,0.01-0.283-0.131-0.334c-0.354-0.144-0.649-0.398-0.956-0.588
			c-0.111-0.061-0.203-0.158-0.295-0.255c-0.274-0.293-0.463-0.61-0.737-0.902c-0.146-0.175-0.281-0.415-0.35-0.645
			c-0.077-0.258-0.183-0.508-0.28-0.729c-0.134-0.239-0.203-0.469-0.243-0.707c-0.085-0.286-0.113-0.59-0.199-0.876
			c-0.031-0.208-0.12-0.401-0.114-0.589c0.046-0.575-0.097-1.157,0.015-1.722c0.088-0.433-0.011-0.871,0.152-1.262
			c0.041-0.075,0.023-0.132,0.026-0.227C49.31,129.451,49.241,129.535,49.147,129.532z M53.023,135.393
			c-0.041-0.238-0.015-0.465-0.018-0.683c-0.029-0.303,0.018-0.566-0.04-0.861c-0.051-0.172-0.103-0.344-0.088-0.504
			c-0.037-0.332-0.037-0.645-0.168-0.979c-0.071-0.134-0.152-0.298-0.166-0.449c-0.046-0.361-0.12-0.713-0.28-1.04
			c-0.08-0.163-0.209-0.281-0.223-0.433c-0.058-0.295-0.298-0.473-0.432-0.713l-0.069,0.083c-0.095,0.309-0.151,0.639-0.275,0.956
			c0.009,0.028,0.026,0.086,0.014,0.151c0.057,0.295,0.114,0.591,0.011,0.87c-0.055,0.234-0.061,0.425,0.074,0.666
			c0.08,0.162,0.12,0.4,0.065,0.635c-0.025,0.227,0.043,0.456,0.161,0.639c0.134,0.24,0.26,0.452,0.309,0.719
			c0.057,0.295,0.171,0.573,0.391,0.787l0.266,0.264c0.08,0.164,0.201,0.252,0.415,0.345
			C52.985,135.684,53.037,135.544,53.023,135.393z"/>
		<path fill="#566875" d="M70.036,130.423c0.066-0.3,0.112-0.563,0.281-0.833c0.117-0.128,0.132-0.288,0.138-0.478
			c-0.022-0.181,0.012-0.378,0.149-0.544c0.098-0.092,0.129-0.195,0.198-0.277c0.204-0.467,0.347-0.51,0.828-0.466
			c0.197,0.033,0.347,0.114,0.504,0.223c0.343,0.21,0.381,0.541,0.331,0.898c-0.062,0.207-0.002,0.407-0.057,0.643
			c-0.104,0.279-0.132,0.601-0.273,0.861l-0.106,0.375c-0.161,0.297-0.041,0.698-0.267,0.984c-0.203,0.154-0.324,0.378-0.341,0.633
			c-0.009,0.284-0.229,0.381-0.396,0.555c-0.068,0.084-0.166,0.176-0.226,0.286c-0.08,0.149-0.255,0.296-0.373,0.424
			c-0.28,0.209-0.599,0.398-0.942,0.501c-0.201,0.06-0.355,0.169-0.518,0.249c-0.335,0.131-0.656,0.103-0.997,0.11
			c-0.274,0.021-0.353,0.074-0.435,0.317c-0.067,0.301-0.215,0.533-0.393,0.772c-0.1,0.187-0.135,0.384-0.197,0.591
			c-0.032,0.104-0.101,0.186-0.228,0.286c-0.183,0.117-0.341,0.32-0.386,0.583c-0.012,0.066-0.023,0.133-0.08,0.149
			c-0.201,0.061-0.301,0.247-0.502,0.307c-0.163,0.079-0.264,0.266-0.41,0.402c-0.195,0.185-0.395,0.244-0.624,0.312
			c-0.279,0.114-0.557,0.229-0.843,0.314c-0.191,0.088-0.4,0.12-0.618,0.123c-0.341,0.009-0.722,0.091-1.091,0.107
			c-0.312,0-0.65-0.085-0.939-0.217c-0.243-0.085-0.466-0.204-0.682-0.296c-0.234-0.056-0.4-0.192-0.575-0.359
			c-0.324-0.245-0.549-0.583-0.795-0.885c-0.292-0.35-0.478-0.761-0.606-1.19c-0.06-0.201-0.14-0.363-0.229-0.557
			c-0.166-0.449-0.16-0.95-0.325-1.4c-0.103-0.343-0.112-0.684-0.092-1.033c0.015-0.161-0.028-0.304-0.051-0.483
			c-0.058-0.295-0.04-0.55-0.003-0.843l-0.02-0.586c-0.006-0.124-0.011-0.246,0.012-0.379c0.092-0.214,0.126-0.411,0.049-0.669
			c-0.032-0.21-0.043-0.457,0.161-0.61c0.04-0.074,0.052-0.141,0.055-0.235c-0.026-0.397-0.006-0.746,0.203-1.09
			c0.061-0.111,0.075-0.272,0.098-0.404c0.074-0.271,0.195-0.495,0.241-0.758c0.063-0.206,0.126-0.412,0.33-0.567
			c0.175-0.145,0.2-0.372,0.292-0.586c0.031-0.104,0.101-0.186,0.198-0.278c0.167-0.175,0.341-0.32,0.453-0.572
			c0.104-0.28,0.364-0.452,0.634-0.595c0.212-0.126,0.415-0.281,0.589-0.427c0.387-0.271,0.805-0.335,1.206-0.455
			c0.257-0.076,0.478-0.174,0.761-0.165c0.37-0.017,0.747-0.005,1.114,0.072c0.292,0.038,0.604,0.038,0.815,0.225
			c0.369,0.294,0.799,0.479,1.07,0.865c0.154,0.203,0.35,0.332,0.475,0.543c0.246,0.301,0.34,0.616,0.452,0.988
			c0.014,0.152,0.163,0.232,0.234,0.367c0.077,0.258,0.241,0.49,0.231,0.772c-0.009,0.284,0.135,0.554,0.249,0.831
			c0.068,0.229,0.091,0.409,0.094,0.627c0.003,0.218,0.005,0.436,0.132,0.647c0.114,0.277,0.113,0.59,0.056,0.919
			c-0.023,0.132,0.011,0.246,0.054,0.39c0.106,0.249,0.146,0.486,0.035,0.739c-0.052,0.14-0.057,0.329-0.015,0.472
			c0.077,0.258,0.022,0.493-0.003,0.719l-0.023,0.132c0.085-0.026,0.134-0.071,0.171-0.052c0.292,0.038,0.516-0.154,0.645-0.35
			c0.195-0.183,0.398-0.337,0.547-0.569C69.701,131.179,69.911,130.835,70.036,130.423z M62.232,125.615
			c-0.304,0.026-0.49,0.239-0.63,0.5c-0.04,0.074-0.118,0.128-0.166,0.174c-0.175,0.146-0.275,0.333-0.375,0.519
			c-0.061,0.111-0.063,0.206-0.189,0.307c-0.058,0.017-0.262,0.483-0.244,0.541c0.049,0.266-0.138,0.478-0.229,0.692
			c-0.06,0.111-0.092,0.215-0.094,0.309c0.011,0.247-0.006,0.501-0.126,0.725c-0.063,0.206-0.126,0.412-0.124,0.631
			c0.022,0.18,0.017,0.368,0.002,0.529c-0.135,0.695-0.081,1.396-0.064,2.078c-0.015,0.16-0.058,0.329-0.015,0.473
			c0.095,0.314,0.152,0.61,0.189,0.941c0.011,0.247,0.002,0.53,0.185,0.725c0.038,0.021,0.025,0.086,0.034,0.115l0.292,0.661
			c0.123,0.307,0.352,0.55,0.61,0.784c0.452,0.365,0.97,0.428,1.479,0.463c0.292,0.037,0.595,0.008,0.865-0.135
			c0.135-0.071,0.223-0.191,0.367-0.234c0.258-0.077,0.435-0.317,0.63-0.5c0.418-0.375,0.642-0.88,0.948-1.315
			c0.04-0.073,0.052-0.139,0.062-0.205c0.052-0.141,0.01-0.283-0.131-0.334c-0.354-0.144-0.649-0.399-0.956-0.589
			c-0.111-0.06-0.203-0.157-0.295-0.254c-0.274-0.293-0.463-0.61-0.737-0.902c-0.146-0.175-0.281-0.416-0.35-0.646
			c-0.077-0.258-0.184-0.507-0.28-0.728c-0.134-0.24-0.203-0.469-0.243-0.707c-0.085-0.286-0.114-0.59-0.2-0.876
			c-0.031-0.209-0.121-0.401-0.114-0.589c0.046-0.576-0.097-1.158,0.015-1.723c0.088-0.432-0.011-0.87,0.152-1.262
			c0.04-0.074,0.023-0.131,0.026-0.226C62.395,125.534,62.326,125.617,62.232,125.615z M66.108,131.476
			c-0.041-0.238-0.015-0.466-0.018-0.683c-0.029-0.303,0.018-0.567-0.04-0.861c-0.051-0.172-0.103-0.344-0.088-0.504
			c-0.037-0.332-0.037-0.645-0.168-0.979c-0.072-0.134-0.152-0.298-0.166-0.449c-0.046-0.361-0.12-0.714-0.28-1.04
			c-0.08-0.163-0.209-0.281-0.223-0.433c-0.058-0.296-0.298-0.473-0.432-0.713l-0.069,0.083c-0.095,0.309-0.151,0.639-0.275,0.956
			c0.009,0.028,0.026,0.086,0.014,0.151c0.057,0.295,0.114,0.59,0.011,0.87c-0.055,0.234-0.061,0.425,0.074,0.665
			c0.08,0.162,0.12,0.4,0.065,0.635c-0.025,0.228,0.043,0.457,0.161,0.64c0.134,0.239,0.26,0.452,0.309,0.719
			c0.057,0.294,0.171,0.573,0.391,0.787l0.266,0.264c0.08,0.163,0.201,0.252,0.415,0.345
			C66.07,131.767,66.122,131.626,66.108,131.476z"/>
		<path fill="#566875" d="M79.295,119.039c0.012-0.065-0.005-0.123,0.035-0.197c0.112-0.252,0.072-0.49-0.005-0.747
			c-0.005-0.124-0.039-0.237,0.021-0.35c0.151-0.326,0.144-0.666,0.069-1.02c-0.018-0.057-0.034-0.114-0.022-0.18
			c0.126-0.413,0.121-0.848,0.152-1.263c0.003-0.406-0.052-0.796,0.083-1.18c0.002-0.095-0.003-0.217-0.008-0.34
			c-0.052-0.485,0.086-0.964,0.044-1.418c0.005-0.189-0.055-0.391,0.046-0.575c0.021-0.037,0.06-0.112,0.118-0.13
			c0.241-0.135,0.481-0.268,0.729-0.374c0.021-0.037,0.086-0.026,0.115-0.034c0.292,0.037,0.57-0.077,0.874-0.105
			c0.189,0.006,0.263,0.047,0.278,0.197c0.08,0.476,0.036,0.957,0.022,1.43c-0.017,0.255-0.043,0.48,0.005,0.747
			c0.022,0.18-0.04,0.387-0.104,0.593c-0.032,0.103-0.034,0.196-0.029,0.32c0.041,0.238,0.109,0.467,0.005,0.747
			c-0.071,0.178-0.125,0.413-0.02,0.661c0.08,0.163,0.054,0.389-0.046,0.576c-0.1,0.186-0.097,0.403-0.046,0.575
			c0.06,0.2,0.054,0.39-0.008,0.595c-0.084,0.244-0.063,0.519-0.052,0.766c0.048,0.266-0.063,0.518-0.052,0.765
			c-0.015,0.159,0,0.312,0.014,0.463c-0.02,0.35-0.04,0.698-0.097,1.028c0.008,0.028,0.008,0.028,0.008,0.028
			c0.088,0.503,0.054,1.014,0.011,1.494c-0.018,0.255-0.006,0.502,0.042,0.768c0.002,0.218,0.062,0.418,0,0.624
			c-0.086,0.339-0.049,0.67,0.045,0.984c0.017,0.059-0.003,0.095-0.015,0.161c-0.103,0.28-0.12,0.535-0.026,0.851
			c0.061,0.2,0.063,0.417-0.066,0.612c-0.081,0.149-0.069,0.396-0.026,0.539c0.089,0.191,0.111,0.372,0.04,0.55
			c-0.112,0.252-0.063,0.517-0.044,0.793c0.049,0.266-0.034,0.51-0.015,0.783c0.012,0.247,0.032,0.522,0.051,0.797
			c0.031,0.209,0.072,0.446,0.168,0.667c0.103,0.344,0.526,0.716,0.876,0.736c0.254,0.017,0.384-0.178,0.566-0.295
			c0.078-0.054,0.138-0.165,0.253-0.199c0.058-0.017,0.068-0.084,0.117-0.13c0.112-0.252,0.277-0.426,0.436-0.629
			c0.048-0.047,0.068-0.083,0.089-0.121c0.066-0.3,0.215-0.532,0.421-0.781c0.118-0.128,0.172-0.363,0.207-0.561
			c0.031-0.104,0.034-0.197,0.094-0.31c0.146-0.137,0.247-0.323,0.29-0.492c0.006-0.188,0.078-0.366,0.141-0.571
			c0,0-0.018-0.059,0.012-0.066c0.215-0.22,0.224-0.505,0.298-0.777c0.012-0.064,0.023-0.13,0.072-0.177
			c0.128-0.194,0.135-0.383,0.198-0.589c0.011-0.066-0.006-0.124,0.005-0.189c0.178-0.24,0.178-0.553,0.281-0.833
			c0.094-0.309,0.209-0.655,0.424-0.876c0.146-0.137,0.413-0.186,0.647-0.131c0.555,0.083,0.873,0.518,0.932,1.031
			c0.023,0.18-0.085,0.338-0.166,0.486c-0.04,0.075-0.08,0.148-0.046,0.263c0.049,0.268,0.04,0.55-0.167,0.799
			c-0.098,0.093-0.055,0.235-0.048,0.358c-0.067,0.301-0.236,0.57-0.311,0.841c-0.138,0.479-0.321,0.908-0.467,1.357
			c-0.095,0.31-0.264,0.579-0.367,0.859c-0.012,0.065-0.061,0.111-0.043,0.169c-0.003,0.094-0.015,0.161-0.063,0.205
			c-0.215,0.221-0.326,0.474-0.393,0.773c-0.043,0.169-0.218,0.315-0.355,0.48c-0.049,0.047-0.154,0.109-0.166,0.176
			c0.002,0.217-0.209,0.342-0.252,0.512c0.008,0.028-0.041,0.074-0.069,0.083c-0.24,0.135-0.406,0.308-0.556,0.541
			c-0.081,0.148-0.234,0.258-0.378,0.301c-0.266,0.048-0.441,0.193-0.615,0.341c-0.244,0.228-0.548,0.256-0.831,0.248
			c-0.321-0.029-0.615,0.028-0.936-0.002c-0.189-0.005-0.35-0.02-0.478-0.137c-0.361-0.268-0.733-0.468-1.045-0.779
			c-0.166-0.138-0.166-0.138-0.341,0.008c-0.214,0.221-0.458,0.45-0.627,0.719c-0.141,0.261-0.364,0.453-0.634,0.596
			c-0.048,0.045-0.106,0.062-0.126,0.099c-0.123,0.318-0.381,0.396-0.696,0.489c-0.143,0.043-0.344,0.104-0.423,0.253
			c-0.198,0.277-0.49,0.24-0.756,0.288s-0.57,0.077-0.831,0.248c-0.029,0.009-0.086,0.026-0.144,0.043
			c-0.292-0.037-0.558,0.012-0.839-0.092c-0.206-0.063-0.415-0.031-0.601-0.132c-0.484-0.261-0.968-0.521-1.314-0.949
			c-0.045-0.048-0.091-0.096-0.165-0.138c-0.324-0.245-0.521-0.592-0.689-0.947c-0.106-0.25-0.175-0.478-0.357-0.673
			c-0.126-0.212-0.157-0.421-0.226-0.65c-0.057-0.295-0.143-0.582-0.2-0.876c-0.074-0.353-0.12-0.713-0.128-1.054
			c-0.002-0.218-0.054-0.39-0.085-0.598c0-0.312,0-0.625,0.009-0.908c0.034-0.197,0.003-0.407-0.02-0.587
			c0.006-0.189,0.012-0.378,0.054-0.548c0.124-0.316,0.125-0.628,0.067-0.923c-0.043-0.144,0.083-0.244,0.106-0.376
			c0.075-0.272,0.083-0.556,0.101-0.81c0.003-0.095-0.023-0.181,0.025-0.227c0.178-0.24,0.215-0.533,0.167-0.799
			c0.011-0.066-0.006-0.123,0.071-0.178c0.187-0.211,0.335-0.443,0.344-0.727c0.014-0.161,0.168-0.27,0.229-0.381
			c0.149-0.232,0.241-0.447,0.39-0.679c0.209-0.344,0.547-0.568,0.756-0.913c0.068-0.082,0.183-0.116,0.26-0.172
			c0.252-0.199,0.458-0.449,0.756-0.601c0.307-0.123,0.559-0.322,0.848-0.503c0.163-0.081,0.352-0.074,0.532-0.098
			c0.332-0.037,0.63-0.188,0.942-0.188c0.057-0.017,0.114-0.034,0.152-0.014c0.271,0.075,0.575,0.046,0.847,0.121
			c0.169,0.043,0.337,0.086,0.527,0.091c0.188,0.007,0.317,0.123,0.484,0.262c0.194,0.129,0.389,0.258,0.612,0.378
			C79.492,119.698,79.266,119.359,79.295,119.039z M75.165,122.023c-0.169,0.269-0.41,0.403-0.679,0.547
			c-0.057,0.017-0.098,0.092-0.109,0.156c-0.046,0.264-0.129,0.507-0.39,0.679c-0.02,0.038-0.069,0.083-0.052,0.142
			c-0.022,0.131-0.129,0.193-0.132,0.287c-0.054,0.235-0.191,0.401-0.255,0.608c-0.055,0.234-0.146,0.449-0.164,0.704
			c-0.018,0.254-0.138,0.478-0.126,0.724c-0.029,0.32-0.058,0.642-0.05,0.981c0.004,0.218,0.006,0.436-0.048,0.67
			c-0.055,0.235-0.081,0.461-0.004,0.72c0.068,0.229,0.146,0.486,0.062,0.729c-0.063,0.206-0.031,0.415,0.094,0.627
			c0.109,0.155,0.177,0.385,0.171,0.572c-0.029,0.32,0,0.625,0.229,0.869c0.046,0.048,0.063,0.105,0.117,0.184
			c0.089,0.191,0.186,0.411,0.255,0.641c0.168,0.354,0.48,0.668,0.913,0.757c0.292,0.037,0.518,0.062,0.813,0.006
			c0.532-0.097,1.002-0.301,1.401-0.638c0.02-0.037,0.077-0.055,0.088-0.12c0.13-0.194,0.304-0.34,0.507-0.496
			c0.02-0.036,0.106-0.062,0.117-0.128c0.103-0.28,0.215-0.532,0.468-0.732c0.048-0.046,0.031-0.103,0.043-0.169
			c0.111-0.253,0.121-0.535,0.261-0.795c0.141-0.262,0.177-0.554,0.187-0.837c0.002-0.094,0.014-0.161,0.054-0.234
			c0.187-0.213,0.167-0.486,0.09-0.745c-0.034-0.113-0.032-0.209,0.02-0.349c0.092-0.215,0.175-0.459,0.126-0.725
			c-0.014-0.152-0.094-0.315-0.051-0.484c0.098-0.403,0.063-0.83,0.03-1.256c-0.032-0.209-0.092-0.41-0.094-0.628
			c-0.003-0.217-0.034-0.427-0.094-0.627c-0.103-0.344-0.3-0.69-0.432-1.025c-0.089-0.192-0.206-0.376-0.343-0.521
			c-0.286-0.227-0.564-0.423-0.891-0.575c-0.289-0.132-0.572-0.141-0.821-0.035c-0.286,0.086-0.584,0.237-0.945,0.283
			C75.425,121.852,75.254,121.902,75.165,122.023z"/>
	</g>
</g>
</svg>
